<svg xmlns="http://www.w3.org/2000/svg" viewBox="0 0 192 192"><title>404</title><g id="Livello_11" data-name="Livello 11"><ellipse cx="157.08" cy="33.51" rx="8" ry="3.68" style="fill:#ff4d4d"/><path d="M38.64,124.41l-1.36-.77c-1.48-.85-2.21-2.11-1.49-3.73s2.31-2,4-1.52a26.61,26.61,0,0,1,3,1.35c2,.91,2.39.67,2.2-1.47a33.85,33.85,0,0,1,.8-10.48c1.11-5,3.87-6.91,8.89-6.41,3.82.38,7.63.68,11.26,2.07,1.85.71,1.68-.82,1.87-1.78a52.59,52.59,0,0,1,9.47-21.49c6.2-8.41,14.31-14.55,23.47-19.4A6.46,6.46,0,0,0,103.4,59c-4.52-2.59-4-6.53-2.84-10.66.2-.71.91-1.55.22-2.17s-1.48.1-2.21.31a5.52,5.52,0,0,1-5.85-1.27c-1.3-1.29-1.32-2.31.36-3.35s3.16-.6,4.78-.65c.64,0,1.58.6,1.82-.36.19-.77-.71-1.15-1.33-1.44a9.26,9.26,0,0,1-5-5.31c-.54-1.44-.17-1.88,1.25-1.83,2.82.11,4.69,1.9,6.63,3.61.55.47,1,1.51,1.87,1,.7-.41.62-1.4.61-2.17a20.43,20.43,0,0,1-.14-3.48c.24-1.39.89-3,2.54-2.91s2.41,1.4,2.57,2.93a20.5,20.5,0,0,1-.09,3c0,.84-.54,1.64-.22,2.78,1.06-.6,1.26-1.78,2-2.46,1-.92,2.11-1.89,3.45-.67a2.6,2.6,0,0,1,.32,3.8,49.9,49.9,0,0,1-3.54,3.59c2.24-.09,3.73-.28,5.12.32s2.23,1.61,1.73,3.12-1.77,1.87-3.25,1.5a11.22,11.22,0,0,1-1.1-.41c-1.14-.4-2.39-1.54-3.47-.52s-.15,2.67-.1,4c0,.27.29.77.42.76,3-.17,5.59,2.15,8.66,1.09a2,2,0,0,0,1.36-2c1.2-8.76,5.85-15.12,13.5-19.4a6,6,0,0,0,1.43-1.5c.79-1,1.8-1.78,3-1.53,2.33.48,4.28-.52,6.34-1.17,3.19-1,6.28-2.42,9.73-2.46,4.29-.05,6.32,1.81,5.79,6-1.18,9.32-3.75,18.23-9,26.13-3.18,4.74-8.07,6.79-13.46,7.66a5.28,5.28,0,0,0-4.79,4.41c-.51,2.2-.88,4.44-1.32,6.66a33.37,33.37,0,0,1-4.38,12,4.24,4.24,0,0,0-.17,4.24c.46,1.14,1.17,1.78,2.3.86,1.45-1.17,2.2-.36,3,.8,1.9,2.76,1.93,2.75,3.85,0a3.91,3.91,0,0,1,1.53-1.41c1.2-.54,2.6-.82,3.48.24a2.6,2.6,0,0,1-.3,3.62c-1.28,1.33-2.6,2.61-4,4a8.11,8.11,0,0,0,3.25.34,32.25,32.25,0,0,1,3.27.18c1.34.22,3.55,2.82,3.07,3.66a3.83,3.83,0,0,1-3.8,1.74c-1.94-.1-3.71-1-5.62-1.51-.12,1.16.77,1.45,1.25,2a9.36,9.36,0,0,1,2,2.55c.46,1.2.83,2.56-.28,3.5s-2.5.41-3.63-.44a.9.9,0,0,1-.18-.15c-4-5.86-10.48-8.78-15.41-13.53a8.51,8.51,0,0,1-1.84-9.52c.85-2.1,1.9-4.12,2.82-6.19.27-.61.76-1.39.1-2s-1.49-.08-2.19.25a2.23,2.23,0,0,0-.9.73c-3,4.58-7.47,7.46-11.75,10.6-3.76,2.75-6.31,6.69-9.52,10a1.28,1.28,0,0,0-.06,1.89c1.31,1.61,1.25,3.49,1,5.37-.46,3.25-.72,6.54-1.8,9.66-.44,1.27.07,1.88,1.15,2.37a30.71,30.71,0,0,0,4.53,1.16c2.34.68,4.28,2.68,3.39,4-1.59,2.34-.87,4.36-.44,6.67.24,1.29-.85,1.93-2.19,1.56-1.12-.31-2.21-.7-3.53-1.12.31,2.3.42,4.36-1,6.2-1,1.26-1.83,1.4-2.8.15-1.18-1.5-2.64-2.85-2.74-5.07a6.23,6.23,0,0,1-4.24,4.45c-1.55.5-2.25,0-2.35-1.53a9,9,0,0,1,0-1.87c.23-1.56.86-3.08-2-2.61-1.66.28-2.68-2.93-1.71-5a12.33,12.33,0,0,1,2.57-3c.8-.84,1.66-1.65,1.5-3.11-2.17,1.23-4.85,2-6.18,3.72-1.81,2.4-3.7,5.18-3.86,8.37-.24,4.6-.31,9.2.92,13.74,1.6,5.91,6.75,11.2,12.25,12,5.22.73,9.21-2.06,12.85-5.17,5.36-4.57,8.72-10.57,11.37-17,.88-2.17,1.74-4.35,2.61-6.53.23-.56.4-1.31,1.19-1.23s.94.76,1.11,1.37a11.34,11.34,0,0,1,.39,4.87c-1.18,7.63-2.89,15.13-7.63,21.43-5.32,7.08-12.1,12.36-21.3,12.29-10.6-.07-18.27-5.4-23-15A39.68,39.68,0,0,1,63.39,131c.3-2.55.24-5.14.35-7.71a2.26,2.26,0,0,0-.42-1.77c-2.1-2.2-4.06-4.56-7-5.81-1.52-.66-2.41-.57-2.24,1.41a12.29,12.29,0,0,1-1.11,5.7,8.41,8.41,0,0,0,.32,7A23.68,23.68,0,0,1,55,134.73c.52,2.38-.78,3.87-2.49,5.13-1,.71-1.78.26-2.4-.59a6.82,6.82,0,0,1-1.62-5.22,6.25,6.25,0,0,0-.65-4.38,18.56,18.56,0,0,0-1.66,4.51c-.88,2.91-2.12,5.55-5,7.07a6.1,6.1,0,0,1-2.91.76c-1.31,0-2-.48-1.51-1.86.61-1.84.63-3-2-3.1s-3.36-1.83-2.2-4.1c.56-1.1,1-1.74.31-3.23s1-2.93,2.36-3.83A22.73,22.73,0,0,1,38.64,124.41Z" style="fill:#fff"/><circle cx="135.56" cy="30.42" r="5.5" style="fill:#fff"/><path d="M135.56,25.42a5,5,0,1,1-5,5,5,5,0,0,1,5-5m0-1a6,6,0,1,0,6,6,6,6,0,0,0-6-6Z"/><circle cx="153.38" cy="48.92" r="6" style="fill:#fff"/><path d="M153.38,43.42a5.5,5.5,0,1,1-5.5,5.5,5.5,5.5,0,0,1,5.5-5.5m0-1a6.5,6.5,0,1,0,6.5,6.5,6.5,6.5,0,0,0-6.5-6.5Z"/><circle cx="155.58" cy="50.42" r="1.5"/><circle cx="135.12" cy="28.33" r="1.5"/></g></svg>