<svg xmlns="http://www.w3.org/2000/svg" xmlns:xlink="http://www.w3.org/1999/xlink" viewBox="0 0 85 85"><defs><style>.cls-1,.cls-3,.cls-4,.cls-5,.cls-6{fill:none;}.cls-2{clip-path:url(#clip-path);}.cls-3{stroke:#ff4d4d;}.cls-3,.cls-4,.cls-5,.cls-6{stroke-miterlimit:10;}.cls-4{stroke:#50a8ff;}.cls-5{stroke:#fff;}.cls-6{stroke:#ffe54a;}.cls-7{fill:#124ca0;}.cls-8{fill:#f9f9f9;}</style><clipPath id="clip-path"><polyline class="cls-1" points="1226.02 -90.12 1750.25 -90.12 1750.25 2294.88 384.25 2294.88 384.25 -90.12 1226.02 -90.12"/></clipPath></defs><title>alphastation</title><g id="cerchi"><g class="cls-2"><path class="cls-3" d="M626.41,118.66c-69.32,80.28-177.13,124.23-289.73,107.07C162.52,199.17,42.86,36.46,69.41-137.7S258.67-431.52,432.83-405,726.65-215.7,700.1-41.54Q697.73-26,693.93-11"/><path class="cls-4" d="M591.16,279.28a420.8,420.8,0,0,1-249.67,51.56C109.27,306.94-59.6,99.32-35.71-132.89S195.81-534,428-510.08,829.11-278.57,805.22-46.35a427,427,0,0,1-7.83,48.52"/><path class="cls-5" d="M794.65,241.78a525,525,0,0,1-184.18,144.8c-263,124.65-577.25,12.51-701.91-250.49S-104-441.16,159-565.82,736.29-578.33,861-315.34A525,525,0,0,1,893.38,48.3"/><path class="cls-6" d="M859,327.61c-123.31,140-307.13,224.17-507.85,213.46-348.32-18.58-615.62-316-597-664.34s316-615.63,664.35-597,615.62,316,597,664.34a634.65,634.65,0,0,1-20,128.12"/><path class="cls-3" d="M641.33,600.81a734.16,734.16,0,0,1-285.42,45.38C-50.47,630.26-367,287.91-351-118.47S7.23-841.36,413.6-825.43s722.89,358.28,707,764.66A732.93,732.93,0,0,1,989,331.36"/><path class="cls-4" d="M809.59,636.63A837.36,837.36,0,0,1,360.72,751.3c-464.43-13.27-830.16-400.53-816.89-865s400.53-830.16,865-816.88S1239-530,1225.68-65.58a846.57,846.57,0,0,1-16.91,146.14"/><path class="cls-6" d="M637.15,931.15a1052.56,1052.56,0,0,1-266.82,30.38c-580.53-8-1044.7-485-1036.73-1065.57s485-1044.7,1065.58-1036.73S1443.87-655.73,1435.91-75.2a1061.6,1061.6,0,0,1-6.78,106.31"/><path class="cls-3" d="M854.62,967.23c-146.4,65.19-308.78,100.84-479.48,99.42-638.59-5.31-1152-527.3-1146.65-1165.89s527.29-1152,1165.88-1146.65S1546.33-718.6,1541-80c-1.84,221.48-65.83,427.9-175.28,602.84"/><path class="cls-4" d="M588.17,1155.46A1269.68,1269.68,0,0,1,380,1171.76C-316.7,1169.11-879.29,602.22-876.63-94.43S-307.08-1353.66,389.56-1351,1648.79-781.46,1646.14-84.81q0,10.75-.26,21.48"/><path class="cls-5" d="M402.14,1276.77q-8.68.11-17.39.11c-754.69,0-1366.5-611.8-1366.5-1366.5s611.81-1366.5,1366.5-1366.5,1366.5,611.8,1366.5,1366.5a1374.68,1374.68,0,0,1-21,240.2"/></g></g><g id="alphastation"><rect class="cls-7" width="85" height="85" rx="41.33"/><path class="cls-8" d="M46.15,10.83,42.79,7.48,27.52,22.75l1.36,1.36-.78.78-3.21-3.21a.27.27,0,0,0-.39,0L21.68,24.5a.27.27,0,0,0,0,.39l3.21,3.21-.78.78-1.36-1.36L7.48,42.79l3.35,3.36L26.11,30.87l-1.32-1.31.78-.78,3.12,3.12a.28.28,0,0,0,.38,0L30,31l.49.49-.88.87a.27.27,0,0,0,0,.39L32.77,36l-.78.78L30.63,35.4,15.36,50.67,18.71,54,34,38.75l-1.32-1.31.78-.78,3.12,3.12a.28.28,0,0,0,.38,0l.88-.88.49.49-2.17,2.16a.37.37,0,0,0,0,.53L43,49a.39.39,0,0,0,.53,0l2.27-2.27.39.39-1,1a.28.28,0,0,0,0,.38l3.12,3.12-.78.78L46.25,51,31,66.29l3.36,3.35L49.6,54.37,48.24,53l.78-.78,3.21,3.21a.27.27,0,0,0,.39,0l1-1,.49.48-1,1a.28.28,0,0,0,0,.38l3.12,3.12-.78.78-1.31-1.32L38.85,74.17l3.36,3.35L57.48,62.25l-1.36-1.36.78-.78,3.21,3.21a.27.27,0,0,0,.39,0l2.82-2.82a.27.27,0,0,0,0-.39L60.11,56.9l.78-.78,1.36,1.36L77.52,42.21l-3.35-3.36L58.89,54.13l1.32,1.31-.78.78L56.31,53.1a.28.28,0,0,0-.38,0l-.88.88-.49-.49.88-.87a.27.27,0,0,0,0-.39L52.23,49l.78-.78,1.36,1.36L69.64,34.33,66.29,31,51,46.25l1.32,1.31-.78.78-3.12-3.12a.28.28,0,0,0-.38,0l-.88.88-.39-.39L49,43.54A.39.39,0,0,0,49,43l-6.87-6.86a.37.37,0,0,0-.53,0l-2.26,2.26-.49-.48,1-1a.28.28,0,0,0,0-.38l-3.12-3.12.78-.78L38.75,34,54,18.71l-3.36-3.35L35.4,30.63,36.76,32l-.78.78-3.21-3.21a.27.27,0,0,0-.39,0l-1,1-.49-.48,1-1a.28.28,0,0,0,0-.38l-3.12-3.12.78-.78,1.31,1.32ZM28.3,22.75,42.79,8.26l2.58,2.57-14.5,14.5Zm-3,8.12-14.5,14.5L8.26,42.79,22.75,28.3Zm7.88,7.88-14.5,14.5-2.57-2.58L30.63,36.18ZM48.82,54.37,34.33,68.86l-2.58-2.57,14.5-14.5Zm7.88,7.88L42.21,76.74l-2.58-2.57,14.5-14.5Zm3-8.12,14.5-14.5,2.57,2.58L62.25,56.7Zm-7.88-7.88,14.5-14.5,2.57,2.58L54.37,48.82ZM36.18,30.63,50.67,16.14l2.58,2.57-14.5,14.5Z"/></g></svg>