<svg xmlns="http://www.w3.org/2000/svg" xmlns:xlink="http://www.w3.org/1999/xlink" viewBox="0 0 85 45"><defs><style>.cls-1,.cls-3,.cls-4,.cls-5,.cls-6{fill:none;}.cls-2{clip-path:url(#clip-path);}.cls-3{stroke:#50a8ff;}.cls-3,.cls-4,.cls-5,.cls-6{stroke-miterlimit:10;}.cls-4{stroke:#ffe54a;}.cls-5{stroke:#ff4d4d;}.cls-6{stroke:#fff;}.cls-7{fill:#ff4d4d;}.cls-8{fill:#50a8ff;}.cls-9{fill:#5b9c4c;}.cls-10{fill:#ffe54a;}</style><clipPath id="clip-path"><polyline class="cls-1" points="1728.97 -217.46 2253.2 -217.46 2253.2 2167.54 887.2 2167.54 887.2 -217.46 1728.97 -217.46"/></clipPath></defs><title>backend</title><g id="cerchi"><g class="cls-2"><path class="cls-3" d="M1312.54,509.29C1181.11,586.34,1027.17,628.64,863.67,624,399.24,610.69,33.5,223.43,46.78-241s400.53-830.16,865-816.88,830.16,400.53,816.89,865a846.68,846.68,0,0,1-16.91,146.15"/><path class="cls-4" d="M1140.1,803.81A1053,1053,0,0,1,873.28,834.2c-580.54-8-1044.7-485-1036.73-1065.58s485-1044.7,1065.58-1036.73,1044.69,485,1036.73,1065.58a1064.37,1064.37,0,0,1-6.78,106.3"/><path class="cls-5" d="M1357.57,839.89c-146.4,65.2-308.78,100.84-479.48,99.42C239.5,934-273.88,412-268.57-226.57s527.3-1152,1165.89-1146.66S2049.28-845.93,2044-207.34c-1.84,221.48-65.83,427.9-175.28,602.84"/><path class="cls-3" d="M1091.12,1028.13a1270.78,1270.78,0,0,1-208.22,16.3C186.25,1041.77-376.34,474.88-373.68-221.77S195.87-1481,892.51-1478.34,2151.74-908.79,2149.09-212.15q0,10.77-.26,21.48"/><path class="cls-6" d="M905.09,1149.43q-8.69.12-17.39.11C133,1149.54-478.8,537.74-478.8-217S133-1583.46,887.7-1583.46,2254.2-971.65,2254.2-217a1374.68,1374.68,0,0,1-21,240.2"/></g></g><g id="main_section" data-name="main section"><path class="cls-7" d="M54.93,21H3.73a3.73,3.73,0,1,1,0-7.45h51.2a3.73,3.73,0,1,1,0,7.45ZM3.73,15a2.24,2.24,0,1,0,0,4.47h51.2a2.24,2.24,0,1,0,0-4.47Z"/><path class="cls-8" d="M81.27,21H67.1a3.73,3.73,0,1,1,0-7.45H81.27a3.73,3.73,0,1,1,0,7.45ZM67.1,15a2.24,2.24,0,0,0,0,4.47H81.27a2.24,2.24,0,1,0,0-4.47Z"/><path class="cls-9" d="M81.27,31.46H3.73a3.73,3.73,0,1,1,0-7.45H81.27a3.73,3.73,0,1,1,0,7.45Zm-77.54-6a2.24,2.24,0,1,0,0,4.47H81.27a2.24,2.24,0,1,0,0-4.47Z"/><path class="cls-7" d="M81.27,41.93H30.07a3.73,3.73,0,1,1,0-7.45h51.2a3.73,3.73,0,1,1,0,7.45Zm-51.2-6a2.24,2.24,0,1,0,0,4.47h51.2a2.24,2.24,0,1,0,0-4.47Z"/><path class="cls-10" d="M81.27,10.52H3.73a3.73,3.73,0,1,1,0-7.45H81.27a3.73,3.73,0,1,1,0,7.45Zm-77.54-6A2.24,2.24,0,1,0,3.73,9H81.27a2.24,2.24,0,1,0,0-4.47Z"/><path class="cls-10" d="M17.9,41.93H3.73a3.73,3.73,0,1,1,0-7.45H17.9a3.73,3.73,0,1,1,0,7.45ZM3.73,36a2.24,2.24,0,1,0,0,4.47H17.9a2.24,2.24,0,0,0,0-4.47Z"/></g></svg>