<svg xmlns="http://www.w3.org/2000/svg" xmlns:xlink="http://www.w3.org/1999/xlink"
    viewBox="0 0 85 45">
    <defs>
        <style>
            .cls-1,.cls-3,.cls-4,.cls-5,.cls-6{fill:none;}.cls-2{clip-path:url(#clip-path);}.cls-3{stroke:#ffe54a;}.cls-3,.cls-4,.cls-5,.cls-6{stroke-miterlimit:10;}.cls-4{stroke:#ff4d4d;}.cls-5{stroke:#50a8ff;}.cls-6{stroke:#fff;}.cls-7{fill:#ffe54a;}.cls-8{fill:#50a8ff;}.cls-9{fill:#ff4d4d;}.cls-10{fill:#5b9c4c;}</style>
        <clipPath id="clip-path">
            <polyline class="cls-1"
                points="1938.09 -219.1 2462.32 -219.1 2462.32 2165.9 1096.32 2165.9 1096.32 -219.1 1938.09 -219.1" />
        </clipPath>
    </defs>
    <title>frontend</title>
    <g id="cerchi">
        <g class="cls-2">
            <path class="cls-3"
                d="M1349.22,802.17a1052.56,1052.56,0,0,1-266.82,30.38C501.86,824.59,37.7,347.51,45.67-233s485-1044.7,1065.58-1036.73S2155.94-784.71,2148-204.18a1064.57,1064.57,0,0,1-6.78,106.31" />
            <path class="cls-4"
                d="M1566.68,838.25c-146.39,65.19-308.77,100.84-479.47,99.42C448.62,932.36-64.76,410.37-59.45-228.22s527.3-1152,1165.89-1146.65S2258.4-847.58,2253.09-209c-1.84,221.48-65.83,427.9-175.28,602.84" />
            <path class="cls-5"
                d="M1300.24,1026.48a1269.72,1269.72,0,0,1-208.23,16.3C395.37,1040.13-167.22,473.23-164.56-223.41S405-1482.64,1101.63-1480,2360.86-910.44,2358.21-213.79q0,10.75-.26,21.48" />
            <path class="cls-6"
                d="M1114.21,1147.79q-8.68.11-17.39.11c-754.69,0-1366.5-611.8-1366.5-1366.5s611.81-1366.5,1366.5-1366.5,1366.5,611.8,1366.5,1366.5a1374.68,1374.68,0,0,1-21,240.2" />
        </g>
    </g>
    <g id="main_section" data-name="main section">
        <path class="cls-7" d="M23.27,24.52H0V1.24H23.27ZM1.52,23H21.75V2.76H1.52Z" />
        <path class="cls-8"
            d="M73.36,24.52A11.64,11.64,0,1,1,85,12.88,11.65,11.65,0,0,1,73.36,24.52Zm0-21.76A10.12,10.12,0,1,0,83.48,12.88,10.13,10.13,0,0,0,73.36,2.76Z" />
        <path class="cls-9" d="M58.39,24.56H30.11L44.25.07ZM32.75,23h23L44.25,3.12Z" />
        <path class="cls-10" d="M84.24,34.92H.76a.76.76,0,0,1,0-1.52H84.24a.76.76,0,0,1,0,1.52Z" />
        <path class="cls-10" d="M84.24,39.92H.76a.76.76,0,0,1,0-1.52H84.24a.76.76,0,0,1,0,1.52Z" />
        <path class="cls-10" d="M84.24,44.93H.76a.76.76,0,0,1,0-1.52H84.24a.76.76,0,1,1,0,1.52Z" />
    </g>
</svg>