<svg xmlns="http://www.w3.org/2000/svg" xmlns:xlink="http://www.w3.org/1999/xlink" viewBox="0 0 25 25"><defs><style>.cls-1,.cls-3,.cls-4{fill:none;}.cls-2{clip-path:url(#clip-path);}.cls-3{stroke:#50a8ff;}.cls-3,.cls-4{stroke-miterlimit:10;}.cls-4{stroke:#fff;}.cls-5{fill:#fff;}.cls-6{fill:#4285f4;}.cls-7{fill:#34a853;}.cls-8{fill:#ea4335;}.cls-9{fill:#fbbc05;}</style><clipPath id="clip-path"><polyline class="cls-1" points="2038.27 -486 2562.5 -486 2562.5 1899 1196.5 1899 1196.5 -486 2038.27 -486"/></clipPath></defs><title>google</title><g id="cerchi"><g class="cls-2"><path class="cls-3" d="M1400.41,759.58a1269.51,1269.51,0,0,1-208.22,16.3C495.55,773.23-67,206.34-64.38-490.31S505.16-1749.54,1201.81-1746.88,2461-1177.34,2458.38-480.69q0,10.76-.26,21.48"/><path class="cls-4" d="M1214.39,880.89q-8.69.11-17.39.11C442.3,881-169.5,269.2-169.5-485.5S442.3-1852,1197-1852,2563.5-1240.2,2563.5-485.5a1374.68,1374.68,0,0,1-21,240.2"/></g></g><g id="alphastation"><rect class="cls-5" width="25" height="25" rx="12.5"/><path class="cls-6" d="M7,3.49a5.49,5.49,0,1,1,.74,10.9A5.49,5.49,0,0,1,7,3.49Z"/><path class="cls-7" d="M20.76,7.1a1.36,1.36,0,1,1-.94,1.18A1.37,1.37,0,0,1,20.76,7.1Z"/><path class="cls-8" d="M16.34,8.94a2.71,2.71,0,0,1,3.44,2.77,2.71,2.71,0,1,1-3.44-2.77Z"/><path class="cls-9" d="M16.46,15.31a3.17,3.17,0,1,1-2.52,3.51A3.18,3.18,0,0,1,16.46,15.31Z"/></g></svg>