<svg xmlns="http://www.w3.org/2000/svg" xmlns:xlink="http://www.w3.org/1999/xlink" viewBox="0 0 234.93 267.63"><defs><style>.cls-1,.cls-3,.cls-4,.cls-5,.cls-6{fill:none;}.cls-2{clip-path:url(#clip-path);}.cls-3{stroke:#ff4d4d;}.cls-3,.cls-4,.cls-5,.cls-6{stroke-miterlimit:10;}.cls-4{stroke:#50a8ff;}.cls-5{stroke:#ffe54a;}.cls-6{stroke:#fff;}.cls-7{fill:#232323;}</style><clipPath id="clip-path"><polyline class="cls-1" points="1726.67 -317.02 2250.91 -317.02 2250.91 2067.98 884.91 2067.98 884.91 -317.02 1726.67 -317.02"/></clipPath></defs><title>logo</title><g id="cerchi"><g class="cls-2"><path class="cls-3" d="M1142,373.91a734.15,734.15,0,0,1-285.42,45.37C450.18,403.35,133.67,61,149.6-345.37s358.28-722.89,764.65-707,722.9,358.28,707,764.65a732.87,732.87,0,0,1-131.52,392.13"/><path class="cls-4" d="M1310.24,409.72c-131.42,77-285.36,119.35-448.87,114.68-464.43-13.28-830.16-400.53-816.89-865s400.54-830.16,865-816.89,830.17,400.54,816.89,865a846.57,846.57,0,0,1-16.91,146.15"/><path class="cls-5" d="M1137.8,704.25A1053.41,1053.41,0,0,1,871,734.63c-580.53-8-1044.69-485-1036.73-1065.58s485-1044.69,1065.58-1036.73,1044.7,485,1036.73,1065.58a1061.79,1061.79,0,0,1-6.78,106.31"/><path class="cls-3" d="M1355.27,740.33c-146.4,65.19-308.77,100.83-479.48,99.41C237.2,834.43-276.17,312.45-270.86-326.14S256.43-1478.1,895-1472.79,2047-945.5,2041.68-306.91c-1.85,221.48-65.84,427.9-175.29,602.84"/><path class="cls-4" d="M1088.82,928.56a1269.68,1269.68,0,0,1-208.22,16.3C184,942.21-378.63,375.31-376-321.33S193.57-1580.56,890.21-1577.91,2149.45-1008.36,2146.79-311.72q0,10.77-.26,21.49"/><path class="cls-6" d="M902.79,1049.87q-8.67.11-17.38.11c-754.7,0-1366.5-611.81-1366.5-1366.5S130.71-1683,885.41-1683s1366.5,611.8,1366.5,1366.5a1374.68,1374.68,0,0,1-21,240.2"/></g></g><g id="Livello_9" data-name="Livello 9"><path class="cls-7" d="M12,186.05l-2.51-1.42c-2.72-1.56-4.06-3.88-2.74-6.84C8.14,174.64,11,174.07,14,175a46.44,46.44,0,0,1,5.49,2.48c3.67,1.67,4.39,1.23,4-2.71a62.71,62.71,0,0,1,1.47-19.27c2-9.15,7.11-12.7,16.35-11.78,7,.69,14,1.24,20.7,3.81,3.4,1.3,3.09-1.51,3.43-3.27A96.81,96.81,0,0,1,83,104.72C94.36,89.27,109.26,78,126.1,69.06c1.61-.86,3.52-1.28,5-3.2-8.31-4.76-7.39-12-5.21-19.6.38-1.31,1.68-2.85.41-4s-2.73.18-4.06.56c-4,1.16-7.66.74-10.77-2.34-2.4-2.37-2.42-4.24.66-6.14,2.84-1.76,5.82-1.11,8.8-1.2,1.17,0,2.91,1.1,3.35-.67.34-1.41-1.32-2.11-2.45-2.64a17.07,17.07,0,0,1-9.16-9.77c-1-2.65-.32-3.45,2.3-3.36,5.17.2,8.62,3.49,12.19,6.62,1,.89,1.8,2.8,3.43,1.86,1.3-.74,1.15-2.56,1.13-4,0-2.15-.6-4.35-.26-6.41.44-2.56,1.64-5.47,4.68-5.34,2.8.11,4.42,2.57,4.72,5.39a34.53,34.53,0,0,1-.18,5.56c-.09,1.55-1,3-.39,5.12,1.94-1.11,2.32-3.28,3.68-4.53,1.87-1.7,3.89-3.48,6.35-1.24a4.78,4.78,0,0,1,.6,7c-1.64,2.06-3.71,3.79-6.51,6.6,4.12-.17,6.85-.52,9.41.6s4.1,3,3.18,5.73-3.26,3.44-6,2.76a21.15,21.15,0,0,1-2-.75c-2.1-.75-4.4-2.83-6.38-1-2.15,2-.28,4.91-.19,7.41,0,.5.53,1.42.78,1.4,5.43-.31,10.26,4,15.91,2,1.85-.64,2.29-2,2.51-3.62,2.2-16.12,10.75-27.79,24.82-35.68a10.85,10.85,0,0,0,2.63-2.76c1.46-1.75,3.31-3.26,5.52-2.81,4.29.89,7.88-.95,11.67-2.15C212.11,2.67,217.79.07,224.13,0c7.89-.09,11.62,3.33,10.65,11-2.17,17.13-6.9,33.51-16.63,48-5.84,8.72-14.84,12.49-24.75,14.09-5,.81-7.73,3.48-8.8,8.11-.94,4-1.62,8.17-2.42,12.25-1.54,7.8-3.69,15.4-8.07,22.15-1.7,2.62-1.4,5.13-.31,7.79.85,2.09,2.16,3.26,4.23,1.58,2.66-2.15,4-.66,5.51,1.47,3.51,5.07,3.56,5.06,7.09.08a7.26,7.26,0,0,1,2.81-2.61c2.21-1,4.78-1.49,6.4.44s1.42,4.62-.55,6.67c-2.36,2.44-4.79,4.8-7.38,7.39,2,.93,4,.51,6,.63a57.18,57.18,0,0,1,6,.32c2.46.42,6.53,5.19,5.65,6.73-1.44,2.55-4.12,3.35-7,3.21-3.57-.18-6.83-1.75-10.33-2.78-.22,2.13,1.42,2.66,2.29,3.66,1.31,1.51,3,2.76,3.72,4.69.84,2.2,1.53,4.71-.52,6.43-2.22,1.87-4.59.75-6.67-.81a1.81,1.81,0,0,1-.33-.28c-7.26-10.78-19.27-16.14-28.33-24.88-4.57-4.4-6-11-3.39-17.5,1.56-3.86,3.5-7.56,5.18-11.37.51-1.14,1.4-2.56.19-3.59s-2.74-.15-4,.46a4.11,4.11,0,0,0-1.66,1.33c-5.49,8.42-13.74,13.72-21.62,19.5-6.9,5.06-11.59,12.3-17.5,18.36a2.38,2.38,0,0,0-.1,3.48c2.4,3,2.29,6.42,1.81,9.88-.83,6-1.31,12-3.3,17.76-.82,2.34.13,3.45,2.1,4.36,2.67,1.22,5.59,1.32,8.34,2.12,4.31,1.26,7.87,4.94,6.23,7.35-2.92,4.3-1.59,8-.8,12.25.44,2.39-1.56,3.55-4,2.87-2-.56-4.06-1.27-6.49-2.05.57,4.23.76,8-1.83,11.4-1.77,2.31-3.35,2.57-5.14.28-2.16-2.77-4.86-5.25-5-9.33-1.32,4.24-3.76,6.89-7.8,8.19-2.84.92-4.13,0-4.31-2.82a16.49,16.49,0,0,1,0-3.44c.42-2.87,1.59-5.65-3.64-4.79-3.05.5-4.92-5.4-3.14-9.15,1.07-2.28,3.06-3.78,4.73-5.54,1.47-1.55,3.05-3,2.76-5.73-4,2.27-8.92,3.61-11.36,6.84-3.34,4.41-6.81,9.53-7.11,15.4-.43,8.44-.56,16.91,1.7,25.26,2.94,10.87,12.4,20.59,22.53,22,9.59,1.34,16.92-3.78,23.63-9.5,9.84-8.4,16-19.43,20.89-31.25,1.63-4,3.2-8,4.81-12,.42-1,.73-2.42,2.19-2.27s1.73,1.4,2,2.51a21,21,0,0,1,.71,9c-2.16,14-5.31,27.81-14,39.4-9.78,13-22.26,22.72-39.18,22.6-19.48-.14-33.59-9.93-42.35-27.55-6.64-13.34-8.55-27.25-6.86-41.9.54-4.68.43-9.44.63-14.16,0-1.17.1-2.36-.77-3.27-3.86-4-7.46-8.38-12.8-10.68-2.79-1.2-4.42-1-4.11,2.59a22.55,22.55,0,0,1-2.05,10.5c-1.83,4.46-1.35,8.69.6,12.93A44,44,0,0,1,42.1,205c.95,4.37-1.44,7.12-4.58,9.44-1.76,1.3-3.28.47-4.43-1.09-2.09-2.85-3.53-5.89-3-9.6a11.54,11.54,0,0,0-1.2-8.05c-1.68,2.85-2.25,5.62-3.06,8.29-1.61,5.35-3.89,10.2-9.15,13a11.08,11.08,0,0,1-5.35,1.39c-2.41,0-3.62-.88-2.78-3.41,1.13-3.39,1.16-5.55-3.6-5.7s-6.18-3.37-4.05-7.55c1-2,1.93-3.2.57-5.93s1.81-5.39,4.34-7C7.49,187.7,9.47,187.14,12,186.05Z"/></g></svg>