<svg xmlns="http://www.w3.org/2000/svg" viewBox="0 0 250 250"><title>mail</title><g id="Livello_10" data-name="Livello 10"><path d="M101.37,72.83,121.8,85.34l9.43,37.5,18.7-17.24,31.76,19,60.79-95.84Zm7.2.89L220.4,38.81l-2.17,1.33L125.05,83.82Zm41.08,28.21L148,103.29l-.12.1-.64.6-14.34,13.23-7.46-29.64-.14-.57,2.8-1.31,67.3-31.55,24.25-11.36,2.86-1.34-16.85,14-35,29Zm31.07,18.62-28.35-17L207.51,57.8,235,35Z" style="fill:#fff"/><line x1="97.37" y1="96.12" x2="13.76" y2="149.88" style="fill:none;stroke:#ffe54a;stroke-linecap:round;stroke-miterlimit:10;stroke-width:3px"/><line x1="104.56" y1="124.64" x2="13.23" y2="204.96" style="fill:none;stroke:#ff4d4d;stroke-linecap:round;stroke-miterlimit:10;stroke-width:3px"/><line x1="127.27" y1="137.71" x2="47.47" y2="225.78" style="fill:none;stroke:#50a8ff;stroke-linecap:round;stroke-miterlimit:10;stroke-width:3px"/><line x1="156.98" y1="138.3" x2="98.85" y2="236.22" style="fill:none;stroke:#5b9c4c;stroke-linecap:round;stroke-miterlimit:10;stroke-width:3px"/></g></svg>