<svg xmlns="http://www.w3.org/2000/svg" viewBox="0 0 43.44 25.96"><defs><style>.cls-1{fill:#565656;}</style></defs><title>minilogo</title><g id="main_section" data-name="main section"><path class="cls-1" d="M3.45,6.76c-.06-.2-.08-.3-.11-.39a.7.7,0,0,1,.41-1,.76.76,0,0,1,1,.44,5.82,5.82,0,0,1,.3.79c.2.53.32.56.67.13A9.06,9.06,0,0,1,7.76,5a1.86,1.86,0,0,1,2.79.46A11.22,11.22,0,0,1,12.22,7.9c.2.47.45.16.66,0a13.56,13.56,0,0,1,5.63-2.19,17.49,17.49,0,0,1,7.8.74,1.61,1.61,0,0,0,.81.17c-.35-1.29.46-1.91,1.42-2.45.17-.09.45-.12.44-.35s-.29-.26-.46-.35a1.43,1.43,0,0,1-.83-1.3c0-.47.18-.66.67-.54s.69.47,1,.75c.12.11.18.4.4.27s.08-.34,0-.51A2.34,2.34,0,0,1,29.83.29c.16-.36.31-.37.56-.1a2.8,2.8,0,0,1,.55,1.86c0,.18-.1.45.15.52s.37-.14.51-.28a4.82,4.82,0,0,1,.61-.66c.29-.21.7-.38,1-.07a.75.75,0,0,1-.07,1,4.9,4.9,0,0,1-.57.54c-.16.14-.39.2-.54.46.3.09.55-.09.81-.08s.73,0,.75.51a.68.68,0,0,1-.63.75c-.37,0-.74,0-1.3,0a2.94,2.94,0,0,1,.87,1,.61.61,0,0,1-.25.88.63.63,0,0,1-.86-.32A1.66,1.66,0,0,1,31.28,6c-.13-.29-.15-.72-.53-.73s-.52.46-.76.71c0,0-.08.2-.06.22.57.51.63,1.41,1.38,1.77a.52.52,0,0,0,.6-.11,6.49,6.49,0,0,1,6-1.07,1.58,1.58,0,0,0,.53,0,.88.88,0,0,1,.83.27A3,3,0,0,0,40.63,8a8.73,8.73,0,0,1,2.21,1.33c.79.77.82,1.48,0,2.14a15.36,15.36,0,0,1-6.4,3.11,4.81,4.81,0,0,1-3.84-1.06,1.38,1.38,0,0,0-1.68-.07c-.49.31-1,.65-1.45,1a8.52,8.52,0,0,1-3,1.39,1.07,1.07,0,0,0-.8.74c-.12.29-.11.54.26.58s.47.33.4.69c-.15.84-.15.85.7.71a.87.87,0,0,1,.53,0c.32.12.62.32.59.67a.67.67,0,0,1-.71.61H26a1.88,1.88,0,0,0,.53.65,8.39,8.39,0,0,1,.56.63c.2.28.13,1.16-.11,1.22a1,1,0,0,1-1-.37,6.89,6.89,0,0,1-.75-1.3c-.23.19-.12.41-.13.59a2.31,2.31,0,0,1-.1.83c-.13.3-.31.62-.68.59s-.53-.38-.58-.74a.13.13,0,0,1,0-.06c.35-1.79-.31-3.51-.34-5.27a2.18,2.18,0,0,1,1.4-2.06c.53-.23,1.09-.41,1.63-.62.17-.06.39-.11.38-.33s-.26-.29-.45-.36a.58.58,0,0,0-.29,0A11.15,11.15,0,0,1,21.94,13a21.09,21.09,0,0,0-3.55.09.33.33,0,0,0-.35.33,1.72,1.72,0,0,1-.8,1.16A12.46,12.46,0,0,1,15.15,16c-.31.15-.32.35-.22.64a8.27,8.27,0,0,0,.62,1c.3.55.29,1.27-.11,1.35-.72.13-.95.63-1.29,1.13-.2.28-.51.2-.69-.12s-.27-.52-.44-.84a2,2,0,0,1-1.31.95c-.4.05-.58-.08-.53-.48a2.35,2.35,0,0,1,.42-1.43,1.59,1.59,0,0,1-1.58,0c-.37-.19-.41-.4-.15-.7a2.81,2.81,0,0,1,.34-.35c.33-.24.72-.4.11-.83-.35-.25,0-1,.6-1.22a3.49,3.49,0,0,1,1-.08.91.91,0,0,0,.83-.29,5.18,5.18,0,0,0-1.8-.45,4.1,4.1,0,0,0-2.22.82,11.22,11.22,0,0,0-2.33,2.67,4.23,4.23,0,0,0,0,4.41,4.14,4.14,0,0,0,3.28,1.39,11,11,0,0,0,5.16-1l1.66-.71c.14-.06.31-.17.44,0s0,.31-.05.45a2.89,2.89,0,0,1-.81,1,12,12,0,0,1-5.29,2.51c-2.26.32-4.45.05-6.11-1.64a6.35,6.35,0,0,1-1.47-6.92,10.23,10.23,0,0,1,3.47-4.82c.52-.41,1-.89,1.46-1.34a.56.56,0,0,0,.25-.4A5.69,5.69,0,0,0,8.25,8.4c-.16-.4-.33-.54-.66-.15a3.16,3.16,0,0,1-1.24.83,2.13,2.13,0,0,0-1.22,1.34,6.24,6.24,0,0,1-.58,1.19,1.24,1.24,0,0,1-1.39.48c-.3,0-.37-.28-.33-.54a1.77,1.77,0,0,1,.66-1.25,1.59,1.59,0,0,0,.68-.91A4.52,4.52,0,0,0,3,9.91a2.77,2.77,0,0,1-2.19.38A1.67,1.67,0,0,1,.18,9.9c-.24-.24-.27-.45.07-.62s.66-.43.2-.92S.18,7.42.8,7.22c.3-.1.51-.13.64-.54s.72-.35,1.13-.26A4.84,4.84,0,0,1,3.45,6.76Z"/></g></svg>