<svg xmlns="http://www.w3.org/2000/svg" xmlns:xlink="http://www.w3.org/1999/xlink" viewBox="0 0 81 81"><defs><style>.cls-1,.cls-3,.cls-4,.cls-5,.cls-6{fill:none;}.cls-2{clip-path:url(#clip-path);}.cls-3{stroke:#50a8ff;}.cls-3,.cls-4,.cls-5,.cls-6{stroke-miterlimit:10;}.cls-4{stroke:#ffe54a;}.cls-5{stroke:#ff4d4d;}.cls-6{stroke:#fff;}.cls-7{fill:#323232;}.cls-8{opacity:0.9;}</style><clipPath id="clip-path"><polyline class="cls-1" points="1744.27 142.5 2268.5 142.5 2268.5 2527.5 902.5 2527.5 902.5 142.5 1744.27 142.5"/></clipPath></defs><title>angular</title><g id="cerchi"><g class="cls-2"><path class="cls-3" d="M1327.84,869.25A837.37,837.37,0,0,1,879,983.92C414.53,970.65,48.8,583.39,62.08,119S462.61-711.2,927-697.92s830.16,400.53,816.88,865A846.56,846.56,0,0,1,1727,313.18"/><path class="cls-4" d="M1155.39,1163.77a1052.48,1052.48,0,0,1-266.81,30.38c-580.54-8-1044.7-485-1036.73-1065.57s485-1044.7,1065.57-1036.73,1044.7,485,1036.73,1065.57a1064.58,1064.58,0,0,1-6.77,106.31"/><path class="cls-5" d="M1372.86,1199.85c-146.4,65.19-308.77,100.84-479.48,99.42C254.79,1294-258.58,772-253.27,133.38S274-1018.58,912.62-1013.27,2064.58-486,2059.27,152.62c-1.84,221.48-65.83,427.89-175.29,602.83"/><path class="cls-3" d="M1106.41,1388.08a1269.51,1269.51,0,0,1-208.22,16.3C201.55,1401.73-361,834.84-358.38,138.19S211.16-1121,907.81-1118.38,2167-548.84,2164.38,147.81q0,10.75-.26,21.48"/><path class="cls-6" d="M920.39,1509.39q-8.68.1-17.39.11C148.3,1509.5-463.5,897.7-463.5,143S148.3-1223.5,903-1223.5,2269.5-611.7,2269.5,143a1374.68,1374.68,0,0,1-21,240.2"/></g></g><g id="main_section" data-name="main section"><polygon class="cls-7" points="40.5 45.89 34.81 45.89 32.11 52.62 32.11 52.62 27.11 52.62 27.09 52.62 40.5 22.54 40.5 22.57 40.5 22.57 40.5 17.45 40.5 17.45 19.04 25.1 22.31 53.48 40.5 63.55 40.5 63.55 40.5 45.89"/><polygon class="cls-7" points="36.58 41.74 40.5 41.74 40.5 41.74 40.5 32.32 36.58 41.74"/><g class="cls-8"><polygon class="cls-7" points="40.5 45.89 46.19 45.89 48.89 52.62 48.89 52.62 53.89 52.62 53.91 52.62 40.5 22.54 40.5 22.57 40.5 22.57 40.5 17.45 40.5 17.45 61.96 25.1 58.69 53.48 40.5 63.55 40.5 63.55 40.5 45.89"/><polygon class="cls-7" points="44.42 41.74 40.5 41.74 40.5 41.74 40.5 32.32 44.42 41.74"/></g></g></svg>