<?xml version="1.0" encoding="UTF-8"?><svg id="main_section" xmlns="http://www.w3.org/2000/svg" viewBox="0 0 42.92 46.1"><defs><style>.cls-1{fill:none;opacity:.9;}.cls-2{fill:#323232;}</style></defs><polygon class="cls-2" points="21.46 28.44 15.77 28.44 13.07 35.17 13.07 35.17 8.07 35.17 8.04 35.17 21.46 5.09 21.46 5.12 21.46 5.12 21.46 0 21.46 0 0 7.65 3.27 36.03 21.46 46.1 21.46 46.1 21.46 28.44"/><polygon class="cls-2" points="17.54 24.29 21.46 24.29 21.46 24.29 21.46 14.87 17.54 24.29"/><g class="cls-1"><polygon class="cls-2" points="21.46 28.44 27.15 28.44 29.85 35.17 29.85 35.17 34.85 35.17 34.87 35.17 21.46 5.09 21.46 5.12 21.46 5.12 21.46 0 21.46 0 42.92 7.65 39.65 36.03 21.46 46.1 21.46 46.1 21.46 28.44"/><polygon class="cls-2" points="25.38 24.29 21.46 24.29 21.46 24.29 21.46 14.87 25.38 24.29"/></g></svg>