<svg xmlns="http://www.w3.org/2000/svg" xmlns:xlink="http://www.w3.org/1999/xlink" viewBox="0 0 81 81"><defs><style>.cls-1,.cls-3,.cls-4,.cls-5,.cls-6{fill:none;}.cls-2{clip-path:url(#clip-path);}.cls-3{stroke:#ffe54a;}.cls-3,.cls-4,.cls-5,.cls-6{stroke-miterlimit:10;}.cls-4{stroke:#ff4d4d;}.cls-5{stroke:#50a8ff;}.cls-6{stroke:#fff;}.cls-7{fill:#fff;}</style><clipPath id="clip-path"><polyline class="cls-1" points="1541.27 30.5 2065.5 30.5 2065.5 2415.5 699.5 2415.5 699.5 30.5 1541.27 30.5"/></clipPath></defs><title>gitlab</title><g id="cerchi"><g class="cls-2"><path class="cls-3" d="M1174.19,448.23C1050.89,588.18,867.06,672.4,666.35,661.69,318,643.11,50.72,345.67,69.31-2.65s316-615.63,664.34-597,615.63,316,597,664.34a633.94,633.94,0,0,1-20,128.12"/><path class="cls-4" d="M956.58,721.43a734.18,734.18,0,0,1-285.43,45.38C264.78,750.88-51.74,408.53-35.81,2.15s358.28-722.89,764.66-707,722.89,358.28,707,764.66A732.94,732.94,0,0,1,1304.28,452"/><path class="cls-5" d="M1124.84,757.25A837.37,837.37,0,0,1,676,871.92C211.53,858.65-154.2,471.39-140.92,7S259.61-823.2,724-809.92,1554.2-409.39,1540.92,55A846.56,846.56,0,0,1,1524,201.18"/><path class="cls-3" d="M952.39,1051.77a1052.48,1052.48,0,0,1-266.81,30.38c-580.54-8-1044.7-485-1036.73-1065.57s485-1044.7,1065.57-1036.73,1044.7,485,1036.73,1065.57a1064.58,1064.58,0,0,1-6.77,106.31"/><path class="cls-4" d="M1169.86,1087.85c-146.4,65.19-308.77,100.84-479.48,99.42C51.79,1182-461.58,660-456.27,21.38S71-1130.58,709.62-1125.27,1861.58-598,1856.27,40.62c-1.84,221.48-65.83,427.89-175.29,602.83"/><path class="cls-5" d="M903.41,1276.08a1269.51,1269.51,0,0,1-208.22,16.3C-1.45,1289.73-564,722.84-561.38,26.19S8.16-1233,704.81-1230.38,1964-660.84,1961.38,35.81q0,10.75-.26,21.48"/><path class="cls-6" d="M717.39,1397.39q-8.68.1-17.39.11C-54.7,1397.5-666.5,785.7-666.5,31S-54.7-1335.5,700-1335.5,2066.5-723.7,2066.5,31a1374.68,1374.68,0,0,1-21,240.2"/></g></g><g id="main_section" data-name="main section"><path id="path14" class="cls-7" d="M41.07,49.31H39.22V63.15h7.52V61.44H41.08V49.31Z"/><g id="g24"><path id="path26" class="cls-7" d="M53.9,60.72a3.2,3.2,0,0,1-2.3,1c-1.41,0-2-.7-2-1.61,0-1.37,1-2,3-2a9.65,9.65,0,0,1,1.31.11v2.56ZM52,52.33A6.19,6.19,0,0,0,48,53.75l.66,1.15a5.63,5.63,0,0,1,3-.89c1.53,0,2.2.78,2.2,2.09v.68a9.36,9.36,0,0,0-1.29-.11c-3.25,0-4.9,1.15-4.9,3.53A3,3,0,0,0,51,63.41a3.3,3.3,0,0,0,3.07-1.61l.34,1.35h1.31V56.07c0-2.24-1-3.74-3.75-3.74Z"/></g><g id="g28"><path id="path30" class="cls-7" d="M61.71,61.76a4.36,4.36,0,0,1-1.77-.3v-6.4a3.69,3.69,0,0,1,2.41-.91c1.8,0,2.48,1.27,2.48,3.32,0,2.92-1.11,4.29-3.12,4.29m.78-9.42a3.4,3.4,0,0,0-2.55,1.13V49.32H58.12V62.81a9.21,9.21,0,0,0,3.5.59c3.47,0,5.14-2.21,5.14-6,0-3-1.55-5-4.28-5"/></g><g id="g32"><path id="path34" class="cls-7" d="M20.86,50.81a5.23,5.23,0,0,1,3.4,1.1l.8-1.39A6.18,6.18,0,0,0,21,49.06c-3.95,0-6.72,2.41-6.72,7.27,0,5.09,3,7.07,6.41,7.07a10.61,10.61,0,0,0,4.12-.8l-.05-5.44v-1.7H19.65v1.71h3.23l.05,4.13a5.14,5.14,0,0,1-2.16.38c-2.74,0-4.58-1.73-4.58-5.36s1.89-5.5,4.67-5.5"/></g><g id="g36"><path id="path38" class="cls-7" d="M33.94,49.31H32.12V59.66c0,2.24,1,3.74,3.74,3.74A5.88,5.88,0,0,0,37,63.3V61.67a5.83,5.83,0,0,1-.84.06c-1.52,0-2.2-.78-2.2-2.09V54.1h3V52.59h-3V49.31Z"/></g><path id="path40" class="cls-7" d="M27.52,63.15h1.81V52.59H27.52Z"/><path id="path42" class="cls-7" d="M27.52,51.13h1.81V49.32H27.52Z"/><path class="cls-7" d="M54.68,32.36l-1.5-4.59a.65.65,0,0,0,0-.13l-3-9.23A1.21,1.21,0,0,0,49,17.59h0a1.19,1.19,0,0,0-1.14.83L45,27.21H36l-2.86-8.79A1.19,1.19,0,0,0,32,17.59a1.21,1.21,0,0,0-1.15.83l-3,9.24v0l-1.53,4.68A1.71,1.71,0,0,0,27,34.28L40.1,43.84a.68.68,0,0,0,.8,0h0l13.16-9.55A1.72,1.72,0,0,0,54.68,32.36ZM46,28.58h5.11L43.19,38.73l-.84,1.08,2.12-6.52Zm-11,0,3.65,11.23L29.89,28.58Zm14-9.27,2.56,7.9H46.44Zm-4.44,9.26L44.11,30,40.5,41.08,36.44,28.57ZM32,19.31l2.57,7.9H29.43ZM27.75,33.18a.35.35,0,0,1-.13-.4l1.12-3.45L37,39.89Zm25.5,0L44,39.89l8.25-10.56,1.12,3.45A.35.35,0,0,1,53.25,33.18Z"/></g></svg>