<?xml version="1.0" encoding="UTF-8"?><svg id="main_section" xmlns="http://www.w3.org/2000/svg" viewBox="0 0 52.54 45.82"><defs><style>.cls-1{fill:#fff;}</style></defs><path id="path14" class="cls-1" d="m26.84,31.72h-1.86v13.84h7.53v-1.71h-5.66v-12.12h0Z"/><g id="g24"><path id="path26" class="cls-1" d="m39.67,43.13c-.6.62-1.43.98-2.3.97-1.41,0-1.98-.7-1.98-1.61,0-1.37.95-2.03,2.98-2.03.44,0,.88.04,1.31.1v2.56h0Zm-1.92-8.39c-1.44,0-2.84.5-3.95,1.42l.66,1.14c.76-.44,1.69-.89,3.02-.89,1.52,0,2.2.78,2.2,2.09v.67c-.43-.07-.86-.1-1.29-.1-3.25,0-4.9,1.14-4.9,3.52,0,2.14,1.31,3.21,3.3,3.21,1.34,0,2.62-.61,3.07-1.61l.34,1.35h1.31v-7.08c0-2.24-.98-3.74-3.75-3.74h0Z"/></g><g id="g28"><path id="path30" class="cls-1" d="m47.48,44.17c-.7,0-1.31-.09-1.77-.3v-6.39c.63-.53,1.41-.91,2.41-.91,1.8,0,2.49,1.27,2.49,3.32,0,2.91-1.12,4.28-3.12,4.28m.78-9.42c-.97,0-1.9.41-2.55,1.13v-4.16h-1.82v13.5c.92.38,2.16.59,3.52.59,3.47,0,5.13-2.21,5.13-6.04,0-3.02-1.55-5.02-4.27-5.02"/></g><g id="g32"><path id="path34" class="cls-1" d="m6.63,33.22c1.64,0,2.71.54,3.4,1.1l.8-1.39c-1.08-.95-2.55-1.46-4.11-1.46-3.95,0-6.72,2.41-6.72,7.27s2.99,7.08,6.4,7.08c1.41,0,2.81-.27,4.12-.8l-.04-5.44v-1.71h-5.07v1.71h3.24l.04,4.13c-.43.21-1.16.38-2.15.38-2.74,0-4.58-1.73-4.58-5.36,0-3.7,1.89-5.5,4.67-5.5"/></g><g id="g36"><path id="path38" class="cls-1" d="m19.7,31.72h-1.81v2.32s0,8.03,0,8.03c0,2.24.97,3.74,3.74,3.74.37,0,.75-.03,1.12-.1v-1.63c-.28.04-.56.06-.84.06-1.52,0-2.2-.78-2.2-2.09v-5.53h3.04v-1.52h-3.04v-3.28s0,0,0,0Z"/></g><path id="path40" class="cls-1" d="m13.28,45.56h1.81v-10.56h-1.81v10.56Z"/><path id="path42" class="cls-1" d="m13.28,33.54h1.81v-1.81h-1.81v1.81Z"/><path class="cls-1" d="m40.44,14.77l-1.5-4.59s-.02-.08-.04-.12l-3-9.23C35.75.33,35.29,0,34.77,0h0c-.52,0-.98.33-1.13.83l-2.86,8.79h-9.01L18.9.83C18.75.33,18.29,0,17.77,0c-.52,0-.99.33-1.15.83l-3,9.24v.02s-1.53,4.68-1.53,4.68c-.23.71.02,1.48.62,1.92l13.15,9.56c.24.17.57.17.8,0h0l13.15-9.55c.6-.44.85-1.21.62-1.92Zm-8.68-3.78h5.11l-7.92,10.15-.85,1.08,2.12-6.52,1.53-4.72Zm-10.99,0l3.65,11.23-8.76-11.23h5.11ZM34.78,1.72l2.56,7.9h-5.13l2.57-7.9Zm-4.44,9.26l-.46,1.41-3.61,11.1-4.06-12.51h8.13ZM17.76,1.72l2.57,7.9h-5.13l2.56-7.9Zm-4.25,13.87c-.12-.09-.18-.25-.13-.4l1.13-3.46,8.24,10.57-9.24-6.71Zm25.51,0l-9.24,6.71,8.24-10.56,1.12,3.46c.05.15,0,.31-.13.4Z"/></svg>