<svg xmlns="http://www.w3.org/2000/svg" xmlns:xlink="http://www.w3.org/1999/xlink" viewBox="0 0 81 81"><defs><style>.cls-1,.cls-3,.cls-4,.cls-5,.cls-6{fill:none;}.cls-2{clip-path:url(#clip-path);}.cls-3{stroke:#ff4d4d;}.cls-3,.cls-4,.cls-5,.cls-6{stroke-miterlimit:10;}.cls-4{stroke:#50a8ff;}.cls-5{stroke:#ffe54a;}.cls-6{stroke:#fff;}.cls-7{fill:#323232;}.cls-10,.cls-8{fill:#231f20;}.cls-8{opacity:0.8;isolation:isolate;}.cls-9{opacity:0.2;}</style><clipPath id="clip-path"><polyline class="cls-1" points="1643.27 142.5 2167.5 142.5 2167.5 2527.5 801.5 2527.5 801.5 142.5 1643.27 142.5"/></clipPath></defs><title>html5</title><g id="cerchi"><g class="cls-2"><path class="cls-3" d="M1058.58,833.43a734.18,734.18,0,0,1-285.43,45.38c-406.37-15.93-722.89-358.28-707-764.66s358.28-722.89,764.66-707,722.89,358.28,707,764.66A732.94,732.94,0,0,1,1406.28,564"/><path class="cls-4" d="M1226.84,869.25A837.37,837.37,0,0,1,778,983.92C313.53,970.65-52.2,583.39-38.92,119S361.61-711.2,826-697.92s830.16,400.53,816.88,865A846.56,846.56,0,0,1,1626,313.18"/><path class="cls-5" d="M1054.39,1163.77a1052.48,1052.48,0,0,1-266.81,30.38c-580.54-8-1044.7-485-1036.73-1065.57s485-1044.7,1065.57-1036.73,1044.7,485,1036.73,1065.57a1064.58,1064.58,0,0,1-6.77,106.31"/><path class="cls-3" d="M1271.86,1199.85c-146.4,65.19-308.77,100.84-479.48,99.42C153.79,1294-359.58,772-354.27,133.38S173-1018.58,811.62-1013.27,1963.58-486,1958.27,152.62c-1.84,221.48-65.83,427.89-175.29,602.83"/><path class="cls-4" d="M1005.41,1388.08a1269.51,1269.51,0,0,1-208.22,16.3C100.55,1401.73-462,834.84-459.38,138.19S110.16-1121,806.81-1118.38,2066-548.84,2063.38,147.81q0,10.75-.26,21.48"/><path class="cls-6" d="M819.39,1509.39q-8.68.1-17.39.11C47.3,1509.5-564.5,897.7-564.5,143S47.3-1223.5,802-1223.5,2168.5-611.7,2168.5,143a1374.68,1374.68,0,0,1-21,240.2"/></g></g><g id="main_section" data-name="main section"><path class="cls-7" d="M24.52,12.92H27v2.47h2.28V12.92h2.49v7.46H29.29v-2.5H27v2.5H24.52Z"/><path class="cls-7" d="M35.06,15.4h-2.2V12.92h6.88V15.4H37.55v5H35.06v-5Z"/><path class="cls-7" d="M40.84,12.92h2.6L45,15.54l1.6-2.62h2.6v7.46H46.75V16.69L45,19.34h0l-1.72-2.65v3.69H40.84Z"/><path class="cls-7" d="M50.47,12.92H53v5h3.51v2.46h-6Z"/><path class="cls-7" d="M34,41.75H40.5v-5H33.58ZM20.92,23.65l3.57,40,16,4.45,16-4.44,3.57-40ZM53.45,61.09l-13,3.59V59.59h0l-10-2.79-.71-7.87h4.93L35,53l5.46,1.47h0V46.65h-11L28.22,31.82H40.5v-4.9h16Z"/><path class="cls-8" d="M46.54,46.65h-6v7.84L46,53Zm-6-19.73v4.9H52.78l-.44,4.91H40.5v5H51.9l-1.35,15-10,2.79v5.09l13-3.59,3-34.17Z"/><g class="cls-9"><polygon class="cls-10" points="40.5 31.82 28.22 31.82 29.54 46.65 40.5 46.65 40.5 41.75 34.02 41.75 33.58 36.73 40.5 36.73 40.5 31.82"/><polygon class="cls-10" points="40.5 54.49 40.49 54.49 35.03 53.02 34.67 48.93 29.74 48.93 30.45 56.8 40.49 59.59 40.5 59.59 40.5 54.49"/></g></g></svg>