<?xml version="1.0" encoding="UTF-8"?><svg id="main_section" xmlns="http://www.w3.org/2000/svg" viewBox="0 0 39.15 55.15"><defs><style>.cls-1{fill:#323232;}.cls-2,.cls-3{fill:#231f20;}.cls-3{isolation:isolate;opacity:.8;}.cls-4{fill:none;opacity:.2;}</style></defs><path class="cls-1" d="m3.59,0h2.49v2.46h2.28V0h2.49v7.46h-2.49v-2.5h-2.28v2.5h-2.49V0Z"/><path class="cls-1" d="m14.13,2.47h-2.19V0h6.88v2.47h-2.19v4.98h-2.49V2.47h0Z"/><path class="cls-1" d="m19.91,0h2.6l1.6,2.62L25.71,0h2.6v7.46h-2.48v-3.7l-1.71,2.65h-.04l-1.72-2.65v3.7h-2.44V0Z"/><path class="cls-1" d="m29.55,0h2.49v4.99h3.5v2.46h-6V0Z"/><path class="cls-1" d="m13.1,28.82h6.47v-5.02h-6.92l.45,5.02ZM0,10.73l3.56,39.98,16,4.44,16.02-4.44,3.57-39.99H0Zm32.53,37.44l-12.95,3.59v-5.09h0s-10.05-2.79-10.05-2.79l-.7-7.87h4.92l.36,4.08,5.46,1.48h0v-7.84h-10.96l-1.32-14.83h12.28v-4.9h16l-3.05,34.17Z"/><path class="cls-3" d="m25.61,33.73h-6.04v7.84l5.47-1.48.57-6.36Zm-6.04-19.73v4.9h12.28l-.44,4.9h-11.84v5.02h11.4l-1.35,15.06-10.05,2.79v5.09l12.95-3.59,3.05-34.17h-16Z"/><g class="cls-4"><polygon class="cls-2" points="19.58 18.9 7.29 18.9 8.62 33.73 19.58 33.73 19.58 28.82 13.1 28.82 12.65 23.8 19.58 23.8 19.58 18.9"/><polygon class="cls-2" points="19.58 41.56 19.57 41.57 14.11 40.09 13.74 36.01 8.82 36.01 9.52 43.88 19.57 46.67 19.58 46.67 19.58 41.56"/></g></svg>