<?xml version="1.0" encoding="UTF-8"?><svg id="main_section" xmlns="http://www.w3.org/2000/svg" viewBox="0 0 79.73 26.92"><defs><style>.cls-1{fill:#323232;}</style></defs><path class="cls-1" d="m13.46,7.33c-3.39,0-6.13,2.75-6.13,6.13s2.75,6.13,6.13,6.13,6.13-2.75,6.13-6.13h0c0-3.39-2.75-6.13-6.13-6.13Z"/><circle class="cls-1" cx="22.26" cy="5.08" r="2.79"/><path class="cls-1" d="m25.7,7.89l-.12-.26-.18.21c-.46.52-1.04.92-1.69,1.16l-.18.07.07.18c2.33,5.61-.32,12.05-5.93,14.38-5.61,2.33-12.05-.32-14.38-5.93-2.33-5.61.32-12.05,5.93-14.38,2.88-1.2,6.13-1.12,8.94.22l.17.08.08-.18c.27-.64.7-1.2,1.24-1.63l.22-.18-.25-.13C17.72.51,15.6,0,13.46,0,6.02,0,0,6.03,0,13.46c0,7.43,6.03,13.46,13.46,13.46s13.46-6.03,13.46-13.46c0-1.93-.41-3.83-1.21-5.58v.02Z"/><rect class="cls-1" x="33.84" y="7.6" width="2.84" height="11.72"/><rect class="cls-1" x="64.46" y="7.6" width="2.84" height="11.72"/><path class="cls-1" d="m57.91,7.33c-2,0-3.54,1.2-3.89,1.53h0l-.18-1.26h-2.36v11.72h2.84v-7.09c0-1.38,1.89-2.53,3.27-2.53s2.42,1.32,2.42,2.9v6.73h2.84v-6.45c0-3.07-1.33-5.54-4.93-5.54Z"/><path class="cls-1" d="m74.75,17.19c-2.13,0-3.54-1.67-3.54-3.73s1.41-3.73,3.54-3.73c1.82,0,2.93,1.76,2.93,1.76l2.06-1.37c-.59-.92-1.28-1.46-2.22-2.03-.81-.49-1.74-.75-2.68-.76-3.55,0-6.26,2.67-6.28,6.13.02,3.47,2.73,6.13,6.28,6.13.94,0,1.87-.27,2.67-.76.94-.57,1.62-1.12,2.22-2.03l-2.06-1.37s-1.1,1.76-2.92,1.76Z"/><path id="path3000" class="cls-1" d="m44.08,7.33c-3.34-.05-6.08,2.61-6.14,5.94,0,.05,0,.09,0,.14,0,3.32,2.49,6.18,6.18,6.18,3.34,0,6.09-2.56,6.09-6.11,0-4.06-3.19-6.15-6.13-6.15Zm.03,2.41c1.76,0,3.43,1.43,3.43,3.73s-1.66,3.72-3.43,3.72c-1.95,0-3.48-1.57-3.48-3.74s1.52-3.71,3.49-3.71h0Z"/></svg>