<svg xmlns="http://www.w3.org/2000/svg" xmlns:xlink="http://www.w3.org/1999/xlink" viewBox="0 0 81 81"><defs><style>.cls-1,.cls-3,.cls-4,.cls-5,.cls-6{fill:none;}.cls-2{clip-path:url(#clip-path);}.cls-3{stroke:#ffe54a;}.cls-3,.cls-4,.cls-5,.cls-6{stroke-miterlimit:10;}.cls-4{stroke:#ff4d4d;}.cls-5{stroke:#50a8ff;}.cls-6{stroke:#fff;}.cls-7{fill:#323232;}</style><clipPath id="clip-path"><polyline class="cls-1" points="1547.27 142.5 2071.5 142.5 2071.5 2527.5 705.5 2527.5 705.5 142.5 1547.27 142.5"/></clipPath></defs><title>ionic</title><g id="cerchi"><g class="cls-2"><path class="cls-3" d="M1180.19,560.23C1056.89,700.18,873.06,784.4,672.35,773.69c-348.33-18.58-615.63-316-597-664.34s316-615.63,664.34-597,615.63,316,597,664.34a633.94,633.94,0,0,1-20,128.12"/><path class="cls-4" d="M962.58,833.43a734.18,734.18,0,0,1-285.43,45.38c-406.37-15.93-722.89-358.28-707-764.66s358.28-722.89,764.66-707,722.89,358.28,707,764.66A732.94,732.94,0,0,1,1310.28,564"/><path class="cls-5" d="M1130.84,869.25A837.37,837.37,0,0,1,682,983.92C217.53,970.65-148.2,583.39-134.92,119S265.61-711.2,730-697.92s830.16,400.53,816.88,865A846.56,846.56,0,0,1,1530,313.18"/><path class="cls-3" d="M958.39,1163.77a1052.48,1052.48,0,0,1-266.81,30.38c-580.54-8-1044.7-485-1036.73-1065.57s485-1044.7,1065.57-1036.73,1044.7,485,1036.73,1065.57a1064.58,1064.58,0,0,1-6.77,106.31"/><path class="cls-4" d="M1175.86,1199.85c-146.4,65.19-308.77,100.84-479.48,99.42C57.79,1294-455.58,772-450.27,133.38S77-1018.58,715.62-1013.27,1867.58-486,1862.27,152.62c-1.84,221.48-65.83,427.89-175.29,602.83"/><path class="cls-5" d="M909.41,1388.08a1269.51,1269.51,0,0,1-208.22,16.3C4.55,1401.73-558,834.84-555.38,138.19S14.16-1121,710.81-1118.38,1970-548.84,1967.38,147.81q0,10.75-.26,21.48"/><path class="cls-6" d="M723.39,1509.39q-8.68.1-17.39.11C-48.7,1509.5-660.5,897.7-660.5,143S-48.7-1223.5,706-1223.5,2072.5-611.7,2072.5,143a1374.68,1374.68,0,0,1-21,240.2"/></g></g><g id="main_section" data-name="main section"><path class="cls-7" d="M14.09,34.37a6.14,6.14,0,1,0,6.13,6.14h0A6.14,6.14,0,0,0,14.09,34.37Z"/><circle class="cls-7" cx="22.9" cy="32.12" r="2.79"/><path class="cls-7" d="M26.34,34.93l-.12-.26-.18.22a4.2,4.2,0,0,1-1.69,1.16l-.18.06.07.19a11,11,0,1,1-5.44-5.72l.17.09.08-.19a4.3,4.3,0,0,1,1.24-1.63l.22-.18-.25-.13a13.48,13.48,0,1,0,6.07,6.37Z"/><rect class="cls-7" x="34.47" y="34.65" width="2.84" height="11.72"/><rect class="cls-7" x="65.09" y="34.65" width="2.84" height="11.72"/><path class="cls-7" d="M58.54,34.37a6.22,6.22,0,0,0-3.89,1.54h0l-.18-1.26H52.11V46.36H55V39.27c0-1.38,1.88-2.53,3.27-2.53a2.68,2.68,0,0,1,2.42,2.9v6.72h2.83V39.92C63.47,36.84,62.14,34.37,58.54,34.37Z"/><path class="cls-7" d="M75.38,44.23a3.73,3.73,0,0,1,0-7.45,3.89,3.89,0,0,1,2.93,1.76l2.06-1.38a6.46,6.46,0,0,0-2.22-2,5.3,5.3,0,0,0-2.68-.76,6.14,6.14,0,1,0,0,12.27,5.26,5.26,0,0,0,2.67-.76,6.46,6.46,0,0,0,2.22-2L78.3,42.47A3.86,3.86,0,0,1,75.38,44.23Z"/><path id="path3000" class="cls-7" d="M44.71,34.37a6.05,6.05,0,0,0-6.14,6v.14a6.06,6.06,0,0,0,6.18,6.18,6.14,6.14,0,0,0,0-12.27Zm0,2.41a3.73,3.73,0,1,1-3.48,3.71,3.52,3.52,0,0,1,3.48-3.71Z"/></g></svg>