<svg xmlns="http://www.w3.org/2000/svg" xmlns:xlink="http://www.w3.org/1999/xlink" viewBox="0 0 81 81"><defs><style>.cls-1,.cls-2,.cls-4,.cls-5,.cls-6,.cls-7{fill:none;}.cls-2{clip-rule:evenodd;}.cls-3{clip-path:url(#clip-path);}.cls-4{stroke:#50a8ff;}.cls-4,.cls-5,.cls-6,.cls-7{stroke-miterlimit:10;}.cls-5{stroke:#ffe54a;}.cls-6{stroke:#ff4d4d;}.cls-7{stroke:#fff;}.cls-8,.cls-9{fill:#fff;}.cls-10,.cls-9{fill-rule:evenodd;}.cls-10{fill:url(#linear-gradient);}.cls-11{clip-path:url(#clip-path-2);}.cls-12{fill:#4b4b4b;opacity:0.66;}.cls-13{fill:url(#linear-gradient-2);}</style><clipPath id="clip-path"><polyline class="cls-1" points="1736.27 30.5 2260.5 30.5 2260.5 2415.5 894.5 2415.5 894.5 30.5 1736.27 30.5"/></clipPath><linearGradient id="linear-gradient" x1="25.16" y1="37.63" x2="38.88" y2="37.63" gradientUnits="userSpaceOnUse"><stop offset="0.01" stop-color="#fff"/><stop offset="0.19" stop-color="#e8e8e8"/><stop offset="0.54" stop-color="#c3c3c3"/><stop offset="0.82" stop-color="#ababab"/><stop offset="1" stop-color="#a3a3a3"/></linearGradient><clipPath id="clip-path-2"><path class="cls-2" d="M32.39,29.92a.75.75,0,0,0-.74,0l-6.12,3.54a.73.73,0,0,0-.37.64v7.07a.74.74,0,0,0,.37.64l6.12,3.53a.7.7,0,0,0,.74,0l6.12-3.53a.74.74,0,0,0,.37-.64V34.1a.73.73,0,0,0-.37-.64Z"/></clipPath><linearGradient id="linear-gradient-2" x1="25.07" y1="37.62" x2="39.22" y2="37.62" gradientUnits="userSpaceOnUse"><stop offset="0" stop-color="#a3a3a3"/><stop offset="0.18" stop-color="#ababab"/><stop offset="0.46" stop-color="#c3c3c3"/><stop offset="0.81" stop-color="#e8e8e8"/><stop offset="0.99" stop-color="#fff"/></linearGradient></defs><title>nodejs</title><g id="cerchi"><g class="cls-3"><path class="cls-4" d="M1319.84,757.25A837.37,837.37,0,0,1,871,871.92C406.53,858.65,40.8,471.39,54.08,7S454.61-823.2,919-809.92,1749.2-409.39,1735.92,55A846.56,846.56,0,0,1,1719,201.18"/><path class="cls-5" d="M1147.39,1051.77a1052.48,1052.48,0,0,1-266.81,30.38c-580.54-8-1044.7-485-1036.73-1065.57s485-1044.7,1065.57-1036.73,1044.7,485,1036.73,1065.57a1064.58,1064.58,0,0,1-6.77,106.31"/><path class="cls-6" d="M1364.86,1087.85c-146.4,65.19-308.77,100.84-479.48,99.42C246.79,1182-266.58,660-261.27,21.38S266-1130.58,904.62-1125.27,2056.58-598,2051.27,40.62c-1.84,221.48-65.83,427.89-175.29,602.83"/><path class="cls-4" d="M1098.41,1276.08a1269.51,1269.51,0,0,1-208.22,16.3C193.55,1289.73-369,722.84-366.38,26.19S203.16-1233,899.81-1230.38,2159-660.84,2156.38,35.81q0,10.75-.26,21.48"/><path class="cls-7" d="M912.39,1397.39q-8.68.1-17.39.11C140.3,1397.5-471.5,785.7-471.5,31S140.3-1335.5,895-1335.5,2261.5-723.7,2261.5,31a1374.68,1374.68,0,0,1-21,240.2"/></g></g><g id="main_section" data-name="main section"><path class="cls-8" d="M40.13,60.23a1.21,1.21,0,0,1-.61-.16l-1.94-1.15c-.29-.16-.15-.22-.06-.25a4.23,4.23,0,0,0,.88-.4.14.14,0,0,1,.15,0l1.49.89a.19.19,0,0,0,.18,0L46,55.81a.2.2,0,0,0,.09-.16V48.93a.22.22,0,0,0-.09-.16l-5.82-3.35a.15.15,0,0,0-.18,0l-5.81,3.35a.2.2,0,0,0-.1.16v6.72a.2.2,0,0,0,.1.16l1.59.92c.86.43,1.39-.08,1.39-.59V49.51a.17.17,0,0,1,.17-.17h.74a.17.17,0,0,1,.17.17v6.63A1.61,1.61,0,0,1,36.57,58a2.51,2.51,0,0,1-1.34-.36l-1.53-.88a1.22,1.22,0,0,1-.61-1.06V48.93a1.23,1.23,0,0,1,.61-1.06l5.82-3.36a1.26,1.26,0,0,1,1.22,0l5.82,3.36a1.23,1.23,0,0,1,.61,1.06v6.72a1.22,1.22,0,0,1-.61,1.06l-5.82,3.36A1.16,1.16,0,0,1,40.13,60.23Z"/><path class="cls-8" d="M41.93,55.61c-2.55,0-3.08-1.17-3.08-2.15a.16.16,0,0,1,.17-.17h.75a.18.18,0,0,1,.17.14c.11.77.45,1.16,2,1.16,1.22,0,1.75-.28,1.75-.93,0-.38-.15-.66-2.06-.84-1.59-.16-2.57-.51-2.57-1.79s1-1.87,2.64-1.87c1.87,0,2.79.65,2.91,2a.15.15,0,0,1-.05.12.14.14,0,0,1-.12.06h-.75a.18.18,0,0,1-.17-.13c-.18-.81-.62-1.07-1.82-1.07s-1.49.47-1.49.82.18.55,2,.78,2.64.58,2.64,1.83S43.77,55.61,41.93,55.61Z"/><path class="cls-8" d="M50.32,48.56a1.12,1.12,0,1,1-1.12-1.12A1.13,1.13,0,0,1,50.32,48.56Zm-2.06,0a.94.94,0,1,0,.94-.94A.94.94,0,0,0,48.26,48.56Zm.52-.63h.43c.15,0,.44,0,.44.34a.29.29,0,0,1-.24.31c.17,0,.19.12.21.28a1,1,0,0,0,.07.33h-.27c0-.06-.05-.38-.05-.39s0-.11-.13-.11H49v.5h-.24Zm.23.56h.2a.17.17,0,0,0,.19-.18c0-.17-.12-.17-.18-.17H49Z"/><path class="cls-9" d="M22.11,34a.73.73,0,0,0-.38-.65l-6.17-3.55a.67.67,0,0,0-.34-.1h-.06a.7.7,0,0,0-.34.1L8.65,33.31a.74.74,0,0,0-.37.65v9.56a.36.36,0,0,0,.19.32.35.35,0,0,0,.37,0l3.66-2.1a.74.74,0,0,0,.38-.65V36.63a.74.74,0,0,1,.37-.65l1.56-.9a.82.82,0,0,1,.37-.1.79.79,0,0,1,.37.1l1.57.9a.74.74,0,0,1,.37.65v4.46a.76.76,0,0,0,.37.65l3.67,2.1a.35.35,0,0,0,.37,0,.38.38,0,0,0,.19-.32Z"/><path class="cls-9" d="M51.8,20.81a.38.38,0,0,0-.37,0,.36.36,0,0,0-.19.32v9.47a.25.25,0,0,1-.13.22.24.24,0,0,1-.26,0l-1.54-.89a.77.77,0,0,0-.75,0l-6.17,3.57a.73.73,0,0,0-.37.64v7.13a.74.74,0,0,0,.37.64l6.17,3.57a.77.77,0,0,0,.75,0l6.17-3.57a.74.74,0,0,0,.37-.64V23.51a.73.73,0,0,0-.38-.65Zm-.58,18.13a.19.19,0,0,1-.09.16L49,40.32a.19.19,0,0,1-.18,0L46.71,39.1a.2.2,0,0,1-.1-.16V36.49a.18.18,0,0,1,.1-.16l2.12-1.23a.19.19,0,0,1,.18,0l2.12,1.23a.17.17,0,0,1,.09.16Z"/><path class="cls-9" d="M72.35,36.42a.73.73,0,0,0,.37-.64V34.05a.74.74,0,0,0-.37-.64l-6.13-3.56a.72.72,0,0,0-.75,0L59.3,33.41a.74.74,0,0,0-.37.64v7.13a.74.74,0,0,0,.38.65l6.13,3.49a.73.73,0,0,0,.73,0l3.71-2.06a.36.36,0,0,0,.19-.32.39.39,0,0,0-.19-.33l-6.21-3.56a.39.39,0,0,1-.19-.32V36.49a.39.39,0,0,1,.19-.32l1.93-1.11a.37.37,0,0,1,.38,0l1.93,1.11a.37.37,0,0,1,.19.32v1.76a.37.37,0,0,0,.56.32Z"/><path class="cls-9" d="M65.75,36.09a.19.19,0,0,1,.15,0l1.18.68a.15.15,0,0,1,.07.13v1.37a.13.13,0,0,1-.07.12l-1.18.68a.14.14,0,0,1-.15,0l-1.18-.68a.15.15,0,0,1-.07-.12V36.9a.17.17,0,0,1,.07-.13Z"/><path class="cls-10" d="M31.65,29.92a.75.75,0,0,1,.74,0l6.12,3.54a.73.73,0,0,1,.37.64v7.07a.74.74,0,0,1-.37.64l-6.12,3.53a.7.7,0,0,1-.74,0l-6.12-3.53a.74.74,0,0,1-.37-.64V34.1a.73.73,0,0,1,.37-.64Z"/><g class="cls-11"><path class="cls-1" d="M31.64,29.92l-6.12,3.54a.75.75,0,0,0-.39.64v7.07a.76.76,0,0,0,.17.46l6.89-11.79A.76.76,0,0,0,31.64,29.92Z"/><path class="cls-1" d="M32.23,45.41l.15-.07,6.11-3.53a.73.73,0,0,0,.34-.64V34.1a.79.79,0,0,0-.16-.48Z"/><path class="cls-12" d="M38.48,33.46l-6.09-3.54-.2-.08L25.3,41.63a.91.91,0,0,0,.21.18l6.13,3.53a.73.73,0,0,0,.59.07l6.44-11.79A.49.49,0,0,0,38.48,33.46Z"/><path class="cls-1" d="M25.59,33.42l-.07,0a.75.75,0,0,0-.39.64v7.07a.75.75,0,0,0,.38.64l6.13,3.53a.69.69,0,0,0,.54.08Z"/><path class="cls-1" d="M38.83,34.1a.71.71,0,0,0-.35-.64l-6.09-3.54-.17-.07,6.61,11.29Z"/><path class="cls-13" d="M32.38,45.34l6.11-3.53a.73.73,0,0,0,.34-.64v0L32.22,29.85a.79.79,0,0,0-.58.07l-6.05,3.5,6.59,12A.56.56,0,0,0,32.38,45.34Z"/></g></g></svg>