<?xml version="1.0" encoding="UTF-8"?><svg id="main_section" xmlns="http://www.w3.org/2000/svg" xmlns:xlink="http://www.w3.org/1999/xlink" viewBox="0 0 64.45 39.47"><defs><style>.cls-1,.cls-2,.cls-3{fill:none;}.cls-4{fill:url(#linear-gradient);}.cls-4,.cls-5{fill-rule:evenodd;}.cls-6,.cls-5{fill:#fff;}.cls-2{clip-rule:evenodd;}.cls-7{fill:url(#linear-gradient-2);}.cls-3{clip-path:url(#clippath);}.cls-8{fill:#4b4b4b;opacity:.66;}</style><linearGradient id="linear-gradient" x1="16.88" y1="16.87" x2="30.61" y2="16.87" gradientUnits="userSpaceOnUse"><stop offset="0" stop-color="#fff"/><stop offset=".19" stop-color="#e8e8e8"/><stop offset=".54" stop-color="#c2c2c2"/><stop offset=".82" stop-color="#ababab"/><stop offset="1" stop-color="#a3a3a3"/></linearGradient><clipPath id="clippath"><path class="cls-2" d="m24.12,9.16c-.23-.13-.51-.13-.74,0l-6.12,3.53c-.23.13-.37.38-.37.64v7.07c0,.26.14.51.37.64l6.12,3.54c.23.13.51.13.74,0l6.12-3.54c.23-.13.37-.38.37-.64v-7.07c0-.26-.14-.51-.37-.64l-6.12-3.53Z"/></clipPath><linearGradient id="linear-gradient-2" x1="16.79" y1="16.86" x2="30.95" y2="16.86" gradientUnits="userSpaceOnUse"><stop offset="0" stop-color="#a3a3a3"/><stop offset=".18" stop-color="#ababab"/><stop offset=".46" stop-color="#c2c2c2"/><stop offset=".81" stop-color="#e8e8e8"/><stop offset=".99" stop-color="#fff"/></linearGradient></defs><path class="cls-6" d="m31.85,39.47c-.21,0-.42-.06-.61-.16l-1.94-1.15c-.29-.16-.15-.22-.05-.25.39-.13.47-.17.88-.4.04-.02.1-.01.14.01l1.49.89c.05.03.13.03.18,0l5.82-3.36c.05-.03.09-.09.09-.16v-6.72c0-.07-.03-.13-.09-.16l-5.82-3.36c-.05-.03-.13-.03-.18,0l-5.82,3.36c-.06.03-.09.1-.09.16v6.72c0,.06.04.13.09.16l1.59.92c.87.43,1.39-.08,1.39-.59v-6.63c0-.09.08-.17.17-.17h.74c.09,0,.17.07.17.17v6.63c0,1.15-.63,1.82-1.72,1.82-.34,0-.6,0-1.34-.36l-1.53-.88c-.38-.22-.61-.63-.61-1.06v-6.72c0-.44.23-.84.61-1.06l5.82-3.36c.37-.21.86-.21,1.22,0l5.82,3.36c.38.22.61.62.61,1.06v6.72c0,.44-.23.84-.61,1.06l-5.82,3.36c-.19.11-.4.16-.61.16Z"/><path class="cls-6" d="m33.65,34.84c-2.55,0-3.08-1.17-3.08-2.15,0-.09.07-.17.17-.17h.75c.08,0,.15.06.17.14.11.77.45,1.15,1.99,1.15,1.23,0,1.75-.28,1.75-.93,0-.38-.15-.65-2.05-.84-1.59-.16-2.58-.51-2.58-1.78,0-1.17.99-1.87,2.65-1.87,1.86,0,2.79.65,2.9,2.04,0,.05-.01.09-.04.13-.03.03-.08.05-.12.05h-.76c-.08,0-.15-.06-.16-.13-.18-.81-.62-1.06-1.82-1.06-1.34,0-1.49.47-1.49.82,0,.42.18.55,1.99.79,1.79.24,2.64.57,2.64,1.83s-1.06,1.99-2.9,1.99Z"/><path class="cls-6" d="m42.04,27.8c0,.62-.5,1.12-1.12,1.12s-1.12-.5-1.12-1.12.52-1.12,1.12-1.12,1.12.49,1.12,1.12Zm-2.06,0c0,.52.42.94.94.94s.94-.43.94-.94-.43-.94-.94-.94-.94.41-.94.94Zm.52-.63h.43c.15,0,.44,0,.44.33,0,.23-.15.28-.24.31.17.01.18.12.21.28.01.1.03.27.07.33h-.27c0-.06-.05-.38-.05-.4-.02-.07-.04-.11-.13-.11h-.22v.5h-.24v-1.26Zm.24.55h.2c.16,0,.19-.11.19-.18,0-.17-.12-.17-.18-.17h-.2v.35Z"/><path class="cls-5" d="m13.83,13.19c0-.27-.14-.51-.37-.65l-6.17-3.55c-.1-.06-.22-.09-.34-.1h-.06c-.12,0-.23.04-.34.1L.37,12.54c-.23.13-.37.38-.37.65v9.56c.01.13.08.26.2.32.11.07.26.07.37,0l3.67-2.1c.23-.14.37-.38.37-.65v-4.47c0-.27.14-.51.37-.65l1.56-.9c.12-.07.24-.1.37-.1s.26.03.37.1l1.56.9c.23.13.37.38.37.65v4.47c0,.27.14.51.37.65l3.67,2.1c.12.07.26.07.37,0,.11-.07.19-.19.19-.32v-9.56Z"/><path class="cls-5" d="m43.52.05c-.12-.06-.26-.06-.37,0-.11.07-.18.19-.18.32v9.47c0,.09-.05.18-.13.23-.08.05-.18.05-.26,0l-1.55-.89c-.23-.13-.51-.13-.74,0l-6.17,3.56c-.23.13-.37.38-.37.65v7.13c0,.27.14.51.37.65l6.17,3.57c.23.13.51.13.75,0l6.17-3.57c.23-.13.37-.38.37-.65V2.75c0-.27-.15-.52-.38-.65L43.52.05Zm-.57,18.12c0,.07-.04.13-.09.16l-2.12,1.22c-.06.03-.13.03-.19,0l-2.12-1.22c-.06-.03-.09-.09-.09-.16v-2.45c0-.07.04-.13.09-.16l2.12-1.22c.06-.03.13-.03.19,0l2.12,1.22c.06.03.09.09.09.16v2.45Z"/><path class="cls-5" d="m64.08,15.66c.23-.13.37-.38.37-.64v-1.73c0-.27-.14-.51-.37-.64l-6.13-3.56c-.23-.13-.52-.13-.75,0l-6.17,3.56c-.23.13-.37.38-.37.65v7.12c0,.27.14.52.38.65l6.13,3.49c.23.13.5.13.73,0l3.71-2.06c.12-.07.19-.19.19-.32,0-.13-.07-.26-.19-.33l-6.21-3.56c-.12-.07-.19-.19-.19-.32v-2.23c0-.13.07-.26.19-.32l1.93-1.11c.12-.07.26-.07.37,0l1.93,1.11c.12.07.19.19.19.32v1.76c0,.13.07.26.19.32.12.07.26.07.37,0l3.7-2.15Z"/><path class="cls-5" d="m57.48,15.33s.1-.03.14,0l1.18.68s.07.07.07.12v1.37c0,.05-.03.1-.07.12l-1.18.68s-.1.03-.14,0l-1.18-.68s-.07-.07-.07-.12v-1.37c0-.05.03-.1.07-.12l1.18-.68Z"/><path class="cls-4" d="m23.37,9.16c.23-.13.51-.13.74,0l6.12,3.53c.23.13.37.38.37.64v7.07c0,.26-.14.51-.37.64l-6.12,3.54c-.23.13-.51.13-.74,0l-6.12-3.54c-.23-.13-.37-.38-.37-.64v-7.07c0-.26.14-.51.37-.64l6.12-3.53Z"/><g class="cls-3"><path class="cls-1" d="m23.37,9.16l-6.13,3.53c-.23.13-.38.38-.38.64v7.07c0,.17.06.33.17.46l6.89-11.79c-.18-.05-.38-.02-.55.08Z"/><path class="cls-1" d="m23.96,24.64s.1-.04.14-.06l6.11-3.54c.23-.13.34-.38.34-.64v-7.07c0-.18-.05-.34-.16-.48l-6.44,11.79Z"/><path class="cls-8" d="m30.21,12.69l-6.1-3.53c-.06-.04-.13-.06-.19-.08l-6.89,11.79c.06.07.13.13.21.18l6.13,3.54c.18.11.39.13.59.06l6.44-11.79c-.05-.06-.11-.12-.19-.16Z"/><path class="cls-1" d="m17.31,12.65l-.07.04c-.23.13-.38.38-.38.64v7.07c0,.26.15.51.38.64l6.13,3.54c.17.1.35.12.53.08l-6.59-12.01Z"/><path class="cls-1" d="m30.55,13.33c0-.26-.11-.51-.34-.64l-6.1-3.53c-.05-.03-.11-.05-.17-.07l6.61,11.29v-7.04Z"/><path class="cls-7" d="m24.1,24.58l6.11-3.54c.23-.13.34-.38.34-.64v-.03l-6.61-11.29c-.19-.05-.4-.03-.57.07l-6.06,3.49,6.59,12.01c.07-.02.14-.04.2-.08Z"/></g></svg>