<svg xmlns="http://www.w3.org/2000/svg" xmlns:xlink="http://www.w3.org/1999/xlink" viewBox="0 0 81 81"><defs><style>.cls-1,.cls-3,.cls-4,.cls-5,.cls-6{fill:none;}.cls-2{clip-path:url(#clip-path);}.cls-3{stroke:#ff4d4d;}.cls-3,.cls-4,.cls-5,.cls-6{stroke-miterlimit:10;}.cls-4{stroke:#50a8ff;}.cls-5{stroke:#ffe54a;}.cls-6{stroke:#fff;}.cls-7{fill:#f2f2f2;}</style><clipPath id="clip-path"><polyline class="cls-1" points="1638.27 30.5 2162.5 30.5 2162.5 2415.5 796.5 2415.5 796.5 30.5 1638.27 30.5"/></clipPath></defs><title>php</title><g id="cerchi"><g class="cls-2"><path class="cls-3" d="M1053.58,721.43a734.18,734.18,0,0,1-285.43,45.38C361.78,750.88,45.26,408.53,61.19,2.15s358.28-722.89,764.66-707,722.89,358.28,707,764.66A732.94,732.94,0,0,1,1401.28,452"/><path class="cls-4" d="M1221.84,757.25A837.37,837.37,0,0,1,773,871.92C308.53,858.65-57.2,471.39-43.92,7S356.61-823.2,821-809.92,1651.2-409.39,1637.92,55A846.56,846.56,0,0,1,1621,201.18"/><path class="cls-5" d="M1049.39,1051.77a1052.48,1052.48,0,0,1-266.81,30.38c-580.54-8-1044.7-485-1036.73-1065.57s485-1044.7,1065.57-1036.73,1044.7,485,1036.73,1065.57a1064.58,1064.58,0,0,1-6.77,106.31"/><path class="cls-3" d="M1266.86,1087.85c-146.4,65.19-308.77,100.84-479.48,99.42C148.79,1182-364.58,660-359.27,21.38S168-1130.58,806.62-1125.27,1958.58-598,1953.27,40.62c-1.84,221.48-65.83,427.89-175.29,602.83"/><path class="cls-4" d="M1000.41,1276.08a1269.51,1269.51,0,0,1-208.22,16.3C95.55,1289.73-467,722.84-464.38,26.19S105.16-1233,801.81-1230.38,2061-660.84,2058.38,35.81q0,10.75-.26,21.48"/><path class="cls-6" d="M814.39,1397.39q-8.68.1-17.39.11C42.3,1397.5-569.5,785.7-569.5,31S42.3-1335.5,797-1335.5,2163.5-723.7,2163.5,31a1374.68,1374.68,0,0,1-21,240.2"/></g></g><g id="main_section" data-name="main section"><path class="cls-7" d="M15.82,32h8.69c2.56,0,4.41.76,5.55,2.21s1.53,3.43,1.14,5.94a11.4,11.4,0,0,1-1,3.38,10.05,10.05,0,0,1-2.07,3,7.21,7.21,0,0,1-3.48,2.14,15.63,15.63,0,0,1-3.83.46H16.92l-1.23,6.16H11.17L15.82,32h0m3.79,3.7L17.67,45.4a2.56,2.56,0,0,0,.39,0h.45a17.17,17.17,0,0,0,5.19-.61q2.09-.69,2.79-4.74.59-3.4-1.16-3.93A14.51,14.51,0,0,0,21,35.66a6.51,6.51,0,0,1-.75,0h-.68l0,0"/><path class="cls-7" d="M36.34,25.77h4.48L39.55,32h4a8.09,8.09,0,0,1,4.93,1.37c1.1.86,1.43,2.51,1,4.93L47.31,49.07H42.77l2.07-10.32a3,3,0,0,0-.19-2.31,2.78,2.78,0,0,0-2.24-.68l-3.6,0L36.14,49.07H31.67l4.67-23.3h0"/><path class="cls-7" d="M54.29,32H63c2.55,0,4.4.76,5.55,2.21s1.53,3.43,1.14,5.94a11.4,11.4,0,0,1-1,3.38,10.09,10.09,0,0,1-2.08,3,7.18,7.18,0,0,1-3.47,2.14,15.63,15.63,0,0,1-3.83.46H55.4l-1.24,6.16H49.65L54.29,32h0m3.8,3.7-2,9.74a2.56,2.56,0,0,0,.39,0H57a17.22,17.22,0,0,0,5.19-.61c1.38-.46,2.32-2,2.79-4.74q.59-3.4-1.17-3.93a14.4,14.4,0,0,0-4.31-.49,6.51,6.51,0,0,1-.75,0h-.68l0,0"/></g></svg>