<?xml version="1.0" encoding="UTF-8"?><svg id="main_section" xmlns="http://www.w3.org/2000/svg" viewBox="0 0 58.65 29.47"><defs><style>.cls-1{fill:#f2f2f2;}</style></defs><path class="cls-1" d="m4.64,6.2h8.7c2.55.02,4.4.76,5.55,2.21,1.15,1.45,1.53,3.43,1.14,5.94-.15,1.15-.49,2.27-1.01,3.38-.5,1.1-1.19,2.1-2.08,2.99-1.08,1.12-2.24,1.84-3.47,2.14-1.23.3-2.51.45-3.83.45h-3.89l-1.23,6.17H0L4.64,6.2h0m3.8,3.7l-1.95,9.74c.13.02.26.03.39.03h.45c2.08.02,3.81-.18,5.19-.62,1.38-.45,2.32-2.03,2.79-4.74.39-2.27,0-3.58-1.17-3.93-1.15-.35-2.59-.51-4.32-.49-.26.02-.51.03-.75.03h-.68l.03-.03"/><path class="cls-1" d="m25.16,0h4.48l-1.27,6.2h4.02c2.21.04,3.85.5,4.93,1.36,1.1.87,1.43,2.51.97,4.93l-2.17,10.81h-4.54l2.08-10.32c.22-1.08.15-1.85-.19-2.3-.35-.45-1.09-.68-2.24-.68l-3.6-.03-2.66,13.34h-4.48L25.16,0h0"/><path class="cls-1" d="m43.12,6.2h8.7c2.55.02,4.4.76,5.55,2.21,1.15,1.45,1.53,3.43,1.14,5.94-.15,1.15-.49,2.27-1.01,3.38-.5,1.1-1.19,2.1-2.08,2.99-1.08,1.12-2.24,1.84-3.47,2.14-1.23.3-2.51.45-3.83.45h-3.89l-1.23,6.17h-4.51l4.64-23.27h0m3.8,3.7l-1.95,9.74c.13.02.26.03.39.03h.45c2.08.02,3.81-.18,5.19-.62,1.38-.45,2.32-2.03,2.79-4.74.39-2.27,0-3.58-1.17-3.93-1.15-.35-2.59-.51-4.32-.49-.26.02-.51.03-.75.03h-.68l.03-.03"/></svg>